<?xml version="1.0" encoding="UTF-8" standalone="no"?><svg xmlns="http://www.w3.org/2000/svg" xmlns:xlink="http://www.w3.org/1999/xlink" data-name="Layer 1" fill="#000000" height="528.2" preserveAspectRatio="xMidYMid meet" version="1" viewBox="0.0 0.0 528.2 528.2" width="528.2" zoomAndPan="magnify"><g id="change1_1"><path d="M0,0V528.18H528.18V0ZM478.13,47.7H399.81L437.38,2h88.15Zm48,390.42L478.7,436V358.19l47.48-7.61Zm-49.48-2.19-47.47-2.11V366.13l47.47-7.61Zm-1.27,77.92-46.2-11.5V434.66l47.47,2.11v77.08ZM426,501.53,379.75,490V432.47l47.48,2.11v66.95ZM260.19,145.09l-27.74,45.7H184.72l17.9-45.7Zm-56.79-2,17.9-45.7h67.83l-27.73,45.7ZM376.47,489.21l-46.2-11.51V430.28l47.48,2.1v56.83ZM327,476.88l-46.2-11.5V428.09l47.47,2.1v46.69ZM53.42,466.56h37l-.67,10.32H44.59Zm224.1-2-46.2-11.51V425.9L278.8,428v36.56Zm-49.47-12.32-46.21-11.51v-17l47.48,2.1v26.43ZM75.81,439.91v-104h104v104Zm52.77,2,15.65,10.33H118.89l-7.49-10.33Zm1.53,0h16.66L171,452.24H145.76Zm18.81,0h16l32.85,10.33H173.17Zm18.84,0h14.08v-.31l42.72,10.64h-24Zm14.08-19.05v-17l47.48-7.61V425Zm0-17.88V388l47.48-17.34v26.72Zm0-17.9V370.14l47.48-26.82v26.42Zm0-17.91V352.32L229.32,316v26.34Zm0-17.91V334.5l47.48-45.77V315Zm-.56-17.38H164.54l37.57-45.7h26.57Zm-17.83,0H146.6l27.73-45.7H201Zm-17.84,0H128.67l17.9-45.7h26.78Zm-17.84,0h-17l8.56-45.7h26.33Zm-17.86,0h-17l-.76-45.7h26.36Zm-17.87,0H75l-9.76-44.12v-1.58h26Zm-17.88,0h-.35V348l-8.55-26.89V293.66Zm-.35,16.91v16.8l-8.55-15.14V323.9Zm0,18.52v17.74l-8.55-3.4V354.16Zm0,18.64v53.49l-8.55,10V384.56Zm.7,54H92l-.67,10.33H65.67Zm18.33,0h17.52l7.49,10.33H92.17Zm26.46,12.33,7.49,10.32H91.36L92,454.24Zm1,0h26.92l15.65,10.32H127.83Zm28.45,0h26.93L200,464.56H164.44Zm29.08,0h26.29L237,464.56H202.12Zm29.1,0h24.35v-.32L274,464.56H239.81Zm24.35-29.18V397.89l47.48-7.61v36.88Zm0-28V369.91l47.48-17.34v36.85Zm0-28V342.2l47.48-26.82v36.29Zm0-27.78V314.49L278.8,278.2v36.21Zm0-27.8V286.8L278.8,241v36.11Zm-.57-27.25h-27l37.57-45.7h36.83Zm-28.09,0H175.54l27.74-45.7h36.95Zm-28.1,0H147.35l17.9-45.7h37Zm-28.11,0H119.71l8.56-45.7h36.08Zm-27.6,0H92.08l-.77-45.7h36.11Zm-27.61,0H64.47l-9.75-44.12v-1.58H90.47Zm-27.63,0h-.35v28.64l-8.54-26.9V246Zm-.35,31.42v31.3l-8.54-15.14V290.7Zm0,33v32.24l-8.54-3.4v-44Zm0,33.14v70l-8.54,10V380.37Zm.7,70.48H91.19l-.67,10.32H55.13Zm27.27,12.32h37l7.49,10.32H90.56Zm38.05,0h36.66l15.65,10.32H136.77Zm38.19,0h37.2l24.25,10.32h-45.8Zm39.35,0h36.55l32.85,10.32H231.06Zm39.36,0H280.8v-.32l42.72,10.64H279Zm34.62-39.31V390l47.47-7.61v47Zm0-38.15V351.84l47.47-17.35v47Zm0-38.16V314.25l47.47-26.82V333.6Zm0-37.66V276.67l47.47-36.29v46.08Zm0-37.67V239.1l47.47-45.76v46Zm-.57-37.13H243l37.57-45.69h47.1Zm-38.36,0H204.49l27.74-45.69h47.21Zm-38.36,0H166l17.9-45.69h47.31Zm-38.38,0H128.65l8.56-45.69H183Zm-37.34,0H91.28l-.77-45.69h45.85Zm-37.35,0H53.93l-9.75-44.12v-1.57H89.67Zm-37.37,0h-.35v43.15l-8.54-26.9V198.26Zm-.35,45.93v45.8l-8.54-15.14V257.51Zm0,47.52v46.74l-8.54-3.39v-58.5Zm0,47.65v86.5l-8.54,10V376.18ZM42.18,478.41l-8.55,10V372l8.55,3.39Zm.69.47H89.59l-.67,10.33H34Zm47.56,0h46.75l7.49,10.33H89.76Zm47.79,0h46.4l15.66,10.33H145.71Zm47.93,0h47.46l24.25,10.33H201.8Zm49.61,0h46.83l32.84,10.33H260Zm49.63,0h44.88v-.31L373,489.21H318.24Zm44.88-49.44V382l47.48-7.61v57.14Zm0-48.28v-47.4l47.48-17.34v57.12Zm0-48.29V286.3l47.48-26.82v56Zm0-47.54V238.85l47.48-36.29v56Zm0-47.54V191.41l47.48-45.77V201.5Zm-.57-47H282.17l37.57-45.7H377.1Zm-48.62,0H233.44l27.73-45.7h57.48Zm-97.27,0H137.59l8.56-45.7h55.56Zm-47.08,0H90.48l-.77-45.7H145.3Zm-47.09,0H43.39l-9.76-44.12v-1.58H88.87Zm-47.12,0h-.34v57.64l-8.55-26.9v-71Zm-.34,60.42v60.31l-8.55-15.14V224.31Zm0,62v61.24l-8.55-3.39v-73ZM31.63,370.29l-8.54-3.39V279.4l8.54,15.14Zm0,.91V490.73l-8.54,10V367.81Zm.7,120H88.79l-.68,10.32H23.5Zm57.3,0h56.49l7.49,10.32H89Zm57.53,0h56.15L219,501.53H154.65Zm57.67,0h57.73l24.25,10.32H220.49Zm59.88,0H321.8l32.85,10.32H289Zm59.89,0h55.15v-.32l42.72,10.64h-65Zm55.15-59.58V374.07l47.48-7.61v67.27Zm0-58.41V315.69l47.48-17.34V365.6Zm0-58.42V258.35l47.48-26.81v65.91Zm0-57.41V201l47.48-36.29v65.83Zm0-57.42V143.71l47.48-45.77v65.74Zm-.57-56.88h-57.8L359,97.39h67.63Zm-58.89,0h-57.9l27.73-45.7h67.74Zm-29-47.7L319.07,49.7h78L359.51,95.39Zm-1,0H222.08L240,49.7h78.1Zm-69.17,0H155.47L164,49.7h75Zm-.79,2-17.89,45.7h-56l8.57-45.7Zm-74.72,45.7h-56l-.77-45.7h65.33Zm-56.83,0h-56L23.09,99V97.39h65Zm-56.86,0h-.35v72.15l-8.54-26.9V102.87ZM31.63,218v74.81l-8.54-15.14V191.12ZM21.09,274.14,12.54,259V157.93l8.55,26.89Zm0,1.71v90.26l-8.55-3.4v-102Zm0,91.16v136l-8.55,10V363.62Zm.7,136.52H88l-.67,10.32H13Zm67,0h66.23l7.49,10.32H88.16Zm67.27,0H222l15.65,10.32h-74Zm67.42,0h68l24.25,10.32H239.17Zm70.14,0H361l32.85,10.32H317.91Zm70.15,0h65.42v-.32L472,513.85H396.66Zm65.42-138.25V297.62l47.47-17.34v77.38Zm0-68.56V230.41l47.47-26.82v75.79Zm0-67.28V163.21l47.47-36.3v75.71Zm0-67.29V96L476.7,50.25v75.6Zm-.57-66.76H360.6L398.16,49.7h77.9ZM398.72,47.7H320.28L348,2h88.28Zm-79.42,0H240.76L258.66,2H347Zm-79.44,0H164.41L173,2h84.78Zm-76.31,0H88.07L87.31,2h84.81Zm-.37,2-8.57,45.69H88.88L88.11,49.7ZM88,95.39H22.3L12.54,51.27V49.7H87.27Zm-66.59,0h-.35V182l-8.55-26.89v-100ZM10.54,47.7V148.85L2,122V7.47L10.89,47.7Zm0,103.93V255.45L2,240.3V124.73Zm0,105.53V361.92L2,358.53V242ZM2,359.43l8.54,3.4V515.38L2,525.36Zm9.24,156.42H87.18l-.67,10.33H2.41Zm76.79,0h76l7.49,10.33H87.35Zm77,0h75.63l15.65,10.33H172.53Zm77.16,0h78.26l24.25,10.33H257.85Zm80.4,0h77.62l32.85,10.33H346.85Zm80.43,0H478.7v-.31l42.72,10.64H435.87Zm75.67-1.18V436.86l47.48,2.1v87.22H524.9Zm47.48-164.95-47.48,7.62V279.55l47.48-17.34Zm0-88.41L478.7,278.65V202.46l47.48-26.82Zm0-86.63L478.7,201.49v-76.1l47.48-36.3Zm0-86.65-47.48,36.3v-76L526.18,2.55ZM86.46,2l.77,45.7H11.75L2,3.57V2Z" fill="#ffffff"/></g></svg>