<?xml version="1.0" encoding="UTF-8"?><svg xmlns="http://www.w3.org/2000/svg" xmlns:xlink="http://www.w3.org/1999/xlink" height="310.3" preserveAspectRatio="xMidYMid meet" version="1.0" viewBox="0.0 -4.2 464.2 310.3" width="464.2" zoomAndPan="magnify"><defs><clipPath id="a"><path d="M 59 181 L 463 181 L 463 306.128906 L 59 306.128906 Z M 59 181"/></clipPath><clipPath id="b"><path d="M 374 146 L 464.21875 146 L 464.21875 240 L 374 240 Z M 374 146"/></clipPath></defs><g><g><path d="M 361.011719 225.65625 C 369.429688 188.71875 403.550781 113.699219 362.222656 94.140625 C 337.363281 82.378906 297.941406 86.984375 286.308594 106.984375 C 277.191406 122.679688 281.253906 222.871094 284.054688 226.019531 C 286.835938 229.183594 361.011719 225.65625 361.011719 225.65625" fill="#9e4f3f" fill-rule="evenodd"/></g><g><path d="M 131.414062 23.480469 C 131.414062 23.480469 77.9375 90.777344 91.042969 92.550781 C 104.152344 94.324219 164.007812 18.890625 164.007812 18.890625 Z M 36.40625 223.515625 C 36.40625 223.515625 84.21875 166.128906 92.019531 148.433594 C 99.808594 130.71875 96.613281 127.882812 106.886719 112.652344 C 117.160156 97.425781 161.441406 49.613281 170.636719 42.523438 C 179.851562 35.445312 185.171875 22.339844 185.171875 22.339844 L 221.296875 15.246094 C 221.296875 15.246094 176.667969 92.46875 162.5 109.820312 C 148.332031 127.171875 123.890625 166.496094 118.933594 173.222656 C 113.980469 179.949219 70.894531 218.429688 70.894531 218.429688 L 36.886719 227.460938 Z M 164.355469 180.746094 C 164.355469 180.746094 228.820312 80.15625 228.472656 103.886719 C 228.105469 127.617188 185.253906 191.367188 185.253906 191.367188 L 158.078125 195.246094 Z M 240.867188 38.710938 C 240.867188 38.710938 202.605469 78.746094 214.304688 78.382812 C 225.988281 78.035156 244.332031 51.472656 244.332031 51.472656 Z M 1.109375 117.871094 C 1.109375 117.871094 82.328125 50.773438 84.746094 60.003906 C 87.183594 69.253906 3.050781 149.972656 3.050781 149.972656 Z M 3.464844 191.285156 C 3.464844 191.285156 64.546875 126.523438 73.59375 130.71875 C 82.644531 134.90625 0.464844 237.15625 0.464844 237.15625 L 3.464844 191.285156" fill="#efefef" fill-rule="evenodd"/></g><g><path d="M 0 234.171875 L 49.070312 221.132812 L 49.070312 27.476562 L 56.359375 27.476562 L 56.359375 219.191406 L 175.144531 187.625 L 175.144531 21.988281 L 182.4375 21.988281 L 182.4375 185.683594 L 238.199219 170.851562 L 238.847656 13.835938 L 246.121094 13.871094 L 245.457031 176.453125 L 182.4375 193.207031 L 182.4375 193.507812 L 181.328125 193.507812 L 1.855469 241.214844 L 0 234.171875" fill="#ccc"/></g><g><path d="M 214.238281 103.472656 C 214.238281 103.472656 202.652344 95.285156 205.253906 83.703125 C 207.839844 72.117188 219.027344 66.535156 222.027344 58.546875 C 225.027344 50.558594 223.019531 47.359375 225.421875 40.980469 C 227.808594 34.585938 228.007812 31.386719 228.40625 24.808594 C 228.820312 18.210938 230.210938 11.617188 241.796875 5.632812 C 253.378906 -0.363281 266.949219 -1.359375 273.347656 1.640625 C 279.730469 4.640625 282.527344 29 281.933594 31.984375 C 281.335938 34.980469 278.335938 57.554688 277.738281 61.746094 C 277.144531 65.9375 270.945312 90.101562 266.949219 93.695312 C 262.957031 97.289062 214.238281 103.472656 214.238281 103.472656" fill="#6b301e" fill-rule="evenodd"/></g><g><path d="M 303.789062 92.1875 C 303.789062 92.1875 317.378906 94.988281 323.359375 105.578125 C 329.359375 116.148438 332.738281 140.90625 337.332031 157.082031 C 341.9375 173.253906 344.324219 179.453125 343.527344 182.253906 C 342.734375 185.039062 280.90625 203.613281 280.90625 203.613281 L 260.257812 206.414062 C 260.257812 206.414062 227.90625 204.011719 225.523438 203.613281 C 223.121094 203.21875 166.808594 189.230469 166.808594 189.230469 C 166.808594 189.230469 179.984375 145.714844 185.785156 129.738281 C 191.566406 113.765625 204.359375 102.976562 212.945312 98.1875 C 221.527344 93.398438 241.101562 85.210938 250.679688 82.210938 C 260.257812 79.210938 303.789062 92.1875 303.789062 92.1875" fill="#ffbc68" fill-rule="evenodd"/></g><g clip-path="url(#a)"><path d="M 133.386719 181.988281 L 439.328125 225.125 C 469.355469 229.351562 465.015625 247.429688 452.71875 263.785156 C 386.699219 351.730469 264.332031 276.460938 188.867188 269.851562 C 161.539062 267.449219 113.8125 269.453125 80.390625 255.863281 C 46.964844 242.292969 58.5625 218 84.648438 206.015625 C 110.730469 194.035156 133.386719 181.988281 133.386719 181.988281" fill="#c97654" fill-rule="evenodd"/></g><g><path d="M 337.894531 229.765625 C 346.277344 229.765625 353.074219 228.191406 353.007812 226.269531 C 352.925781 224.328125 346.03125 222.738281 337.644531 222.738281 C 329.226562 222.738281 322.433594 224.328125 322.515625 226.269531 C 322.597656 228.191406 329.492188 229.765625 337.894531 229.765625" fill="#ed9977" fill-rule="evenodd"/></g><g><path d="M 253.179688 11.21875 C 253.179688 11.21875 266.949219 17.613281 268.542969 30.789062 C 270.148438 43.964844 262.757812 67.132812 263.753906 78.316406 C 264.746094 89.503906 272.535156 85.308594 273.746094 92.683594 C 274.9375 100.074219 267.351562 104.664062 272.535156 110.863281 C 277.738281 117.046875 282.726562 114.460938 285.328125 112.851562 C 287.914062 111.261719 285.925781 99.875 295.503906 96.28125 C 305.101562 92.683594 312.074219 97.289062 313.070312 94.890625 C 314.082031 92.484375 314.082031 80.503906 307.882812 74.324219 C 301.703125 68.125 296.5 65.140625 296.300781 55.945312 C 296.101562 46.765625 301.703125 16.621094 289.523438 6.230469 C 277.34375 -4.160156 250.578125 -0.5625 253.179688 11.21875" fill="#6b301e" fill-rule="evenodd"/></g><g><path d="M 247.480469 67.03125 C 247.480469 67.03125 246.6875 79.90625 243.683594 83.402344 C 240.703125 86.902344 238.796875 87.695312 239.09375 89.699219 C 239.394531 91.691406 252.167969 113.050781 258.664062 112.652344 C 265.160156 112.257812 276.230469 91.390625 276.332031 90.199219 C 276.429688 88.988281 267.050781 78.21875 267.746094 73.429688 C 268.441406 68.621094 269.753906 58.25 269.753906 58.25 L 247.480469 67.03125" fill="#fe9365" fill-rule="evenodd"/></g><g><path d="M 247.480469 67.03125 C 247.480469 67.03125 247 74.769531 245.390625 79.875 C 248.390625 80.933594 253.992188 81.796875 264.019531 80.207031 C 265.988281 79.890625 267.765625 79.511719 269.386719 79.078125 C 268.277344 76.925781 267.53125 74.886719 267.746094 73.429688 C 268.441406 68.621094 269.753906 58.25 269.753906 58.25 L 247.480469 67.03125" fill="#fe845b" fill-rule="evenodd"/></g><g><path d="M 260.058594 14.21875 C 260.058594 14.21875 246.1875 12.925781 240.601562 20.300781 C 235 27.691406 238.695312 35.179688 236.394531 41.777344 C 234.105469 48.355469 234.902344 60.984375 240.601562 67.777344 C 246.285156 74.554688 256.976562 75.050781 263.867188 71.953125 C 270.746094 68.855469 271.046875 59.640625 274.640625 51.15625 C 278.238281 42.671875 269.15625 17.316406 260.058594 14.21875" fill="#fe9365" fill-rule="evenodd"/></g><g><path d="M 213.507812 156.039062 L 205.519531 144.519531 L 235.351562 134.59375 L 242.011719 144.089844 L 266.355469 143.441406 L 233.859375 171.167969 L 213.507812 156.039062" fill="#b3b3b3" fill-rule="evenodd"/></g><g><path d="M 148.679688 167.40625 C 148.515625 166.476562 172.378906 134.578125 172.378906 134.578125 L 185.933594 145.464844 L 175.292969 180.648438 L 148.679688 167.40625" fill="#fe9365" fill-rule="evenodd"/></g><g><path d="M 232.664062 97.175781 C 232.664062 97.175781 236.660156 101.285156 237.15625 108.359375 C 237.652344 115.453125 235.050781 121.351562 234.058594 121.453125 C 233.0625 121.550781 227.960938 118.554688 227.363281 115.652344 C 226.765625 112.753906 225.769531 103.074219 225.871094 101.882812 C 225.96875 100.671875 227.363281 96.578125 232.664062 97.175781" fill="#bd7958" fill-rule="evenodd"/></g><g><path d="M 193.222656 118.652344 C 193.222656 118.652344 234.953125 95.683594 235.847656 95.585938 C 236.757812 95.484375 236.441406 97.191406 236.441406 97.191406 L 194.019531 122.445312 L 184.242188 126.042969 L 193.222656 118.652344" fill="#4d4d4d" fill-rule="evenodd"/></g><g><path d="M 189.132812 130.535156 C 189.132812 130.535156 237.355469 101.382812 238.847656 101.484375 C 240.339844 101.585938 239.441406 102.578125 239.441406 102.578125 C 239.441406 102.578125 190.605469 135.339844 188.898438 135.175781 C 187.191406 135.007812 189.132812 130.535156 189.132812 130.535156" fill="#4d4d4d" fill-rule="evenodd"/></g><g><path d="M 231.984375 247.460938 L 274.691406 225.257812 C 276.445312 224.347656 277.441406 223.367188 277.476562 222.523438 L 278.667969 217.683594 L 269.902344 219.871094 C 249.898438 216.953125 191.417969 209.679688 191.417969 209.679688 L 211.007812 239.308594 L 218.894531 250.527344 C 226.601562 251.441406 225.589844 250.792969 231.984375 247.460938" fill="#4d4d4d" fill-rule="evenodd"/></g><g><path d="M 233.179688 242.773438 L 275.898438 220.566406 C 279.496094 218.695312 279.910156 216.589844 275.335938 215.828125 C 261.53125 213.558594 192.609375 204.988281 192.609375 204.988281 L 212.199219 234.636719 L 220.089844 245.835938 C 227.792969 246.75 226.800781 246.105469 233.179688 242.773438" fill="#e6e6e6" fill-rule="evenodd"/></g><g><path d="M 225.855469 248.539062 L 194.964844 172.03125 C 193.492188 168.417969 193.09375 167.621094 189.113281 167.273438 C 176.1875 166.128906 86.238281 154.445312 84.894531 154.363281 C 83.46875 154.28125 82.308594 156.1875 82.675781 157.726562 C 83.023438 159.269531 83.386719 159.914062 83.386719 159.914062 L 118.835938 234.902344 C 118.835938 234.902344 119.910156 235.863281 121.253906 235.945312 C 122.429688 236.011719 203.367188 247.679688 222.027344 249.933594 C 224.460938 250.230469 225.855469 248.539062 225.855469 248.539062" fill="#515458" fill-rule="evenodd"/></g><g><path d="M 82.757812 158.058594 C 83.074219 159.351562 83.386719 159.914062 83.386719 159.914062 L 116.433594 233.875 C 116.433594 233.875 118.472656 235.464844 119.8125 235.53125 L 221.414062 250.792969 L 191.617188 175.59375 C 190.175781 171.964844 189.746094 171.167969 185.765625 170.820312 C 173.636719 169.757812 93.578125 159.386719 82.757812 158.058594" fill="#e6e6e6" fill-rule="evenodd"/></g><g><path d="M 268.242188 200.613281 C 268.242188 200.613281 300.226562 182.484375 304.421875 179.984375 C 308.613281 177.496094 325.464844 176.554688 332.242188 177.761719 C 339.039062 178.957031 344.027344 181.855469 344.523438 184.9375 C 345.019531 188.039062 343.214844 202.222656 327.402344 205.984375 C 311.59375 209.730469 283.425781 212.398438 276.230469 212.792969 C 269.054688 213.195312 268.242188 200.613281 268.242188 200.613281" fill="#fe9365" fill-rule="evenodd"/></g><g><path d="M 169.675781 144.71875 C 169.675781 144.71875 174.746094 124.320312 177.5625 119.664062 C 180.363281 115.007812 201.90625 108.429688 201.90625 108.429688 C 201.90625 108.429688 201.015625 110.863281 199.503906 112.257812 C 198.015625 113.648438 189.179688 118.769531 188.453125 119.296875 C 187.707031 119.8125 205.421875 111.726562 205.421875 111.726562 C 205.421875 111.726562 205.800781 115.820312 203.21875 117.65625 C 200.632812 119.480469 189.828125 125.378906 189.414062 126.273438 C 189 127.171875 205.304688 119.214844 206.382812 118.71875 C 207.476562 118.222656 206.664062 121.882812 204.394531 124.136719 C 202.125 126.40625 190.574219 131.542969 191.171875 131.941406 C 191.78125 132.324219 201.710938 128.050781 201.710938 128.050781 C 201.710938 128.050781 202.871094 131 199.058594 133.714844 C 195.246094 136.433594 188.980469 140.710938 187.691406 142.464844 C 186.378906 144.222656 186.183594 148.265625 182.800781 149.875 C 179.421875 151.464844 172.460938 148.480469 169.675781 144.71875" fill="#fe9365" fill-rule="evenodd"/></g><g><path d="M 226.402344 131.214844 C 226.402344 131.214844 219.972656 145.28125 221.179688 154.929688 C 222.390625 164.574219 225.605469 161.488281 225.605469 161.488281 C 225.605469 161.488281 224.527344 148.761719 226.402344 131.214844 Z M 232.300781 126.441406 C 232.300781 126.441406 234.503906 130.632812 234.40625 139.714844 C 234.304688 148.796875 234.207031 157.992188 235.101562 160.378906 C 235.996094 162.78125 235.894531 163.378906 235.894531 163.378906 C 235.894531 163.378906 231.738281 160.59375 232.003906 158.886719 C 232.136719 158.042969 231.453125 151.148438 231.738281 144.421875 C 232.035156 137.59375 233.296875 130.898438 232.300781 126.441406 Z M 218.265625 118.4375 C 221.113281 130.019531 221.113281 131.164062 218.878906 136.382812 C 216.640625 141.621094 214.601562 149.804688 216.738281 155.824219 C 218.878906 161.855469 231.523438 165.367188 231.523438 165.367188 C 231.523438 165.367188 243.851562 166.394531 243.238281 166.0625 C 242.625 165.714844 237.933594 149.011719 239.476562 139.003906 C 241 129.011719 241.199219 124.453125 238.347656 120.9375 C 235.5 117.410156 230.492188 113.199219 229.683594 106.042969 C 228.871094 98.882812 231.722656 95.585938 231.722656 95.585938 C 222.425781 98.035156 215.597656 107.597656 218.265625 118.4375" fill="#fff5d3" fill-rule="evenodd"/></g><g><path d="M 205.007812 159.386719 C 205.007812 159.386719 194.253906 150.121094 194.152344 148.613281 C 194.054688 147.121094 195.480469 147.703125 195.480469 147.703125 L 227.3125 152.839844 L 237.40625 165.832031 L 251.820312 148.894531 C 251.820312 148.894531 276.082031 137.527344 277.691406 138.222656 C 279.28125 138.917969 267.398438 156.1875 267.398438 156.1875 L 261.613281 199.488281 L 238.132812 205.949219 L 212 200.382812 L 205.007812 159.386719" fill="#fff" fill-rule="evenodd"/></g><g><path d="M 236.941406 166.726562 L 265.410156 156.964844 L 265.789062 158.074219 L 237.570312 167.738281 L 238.632812 203.398438 L 237.472656 203.433594 L 236.410156 167.820312 L 207.0625 162.484375 L 207.277344 161.339844 L 236.941406 166.726562" fill="#ccc"/></g><g><path d="M 241.117188 129.789062 C 241.101562 129.820312 238.996094 140.660156 242.359375 147.753906 C 245.65625 154.730469 251.988281 156.402344 252.003906 156.402344 L 251.472656 158.324219 C 251.457031 158.308594 244.246094 156.402344 240.554688 148.597656 C 236.925781 140.925781 239.144531 129.457031 239.160156 129.421875 L 241.117188 129.789062" fill="#fff5d3" fill-rule="evenodd"/></g><g><path d="M 252.683594 41.261719 C 254.789062 42.472656 253.859375 49.730469 254.144531 52.132812 C 254.273438 53.160156 256.097656 53.773438 256.742188 53.789062 C 256.246094 55.996094 251.324219 56.011719 250.496094 53.492188 C 250.296875 52.894531 251.09375 52.148438 251.589844 49.5 C 252.136719 46.683594 252.417969 41.960938 252.683594 41.261719" fill="#ce7752" fill-rule="evenodd"/></g><g><path d="M 234.007812 33.890625 C 234.007812 33.890625 236.144531 31.816406 239.34375 31.1875 C 242.539062 30.558594 249.054688 31.851562 249.019531 34.238281 C 248.988281 36.621094 244.183594 34.269531 239.941406 34.085938 C 235.714844 33.921875 234.753906 34.867188 234.222656 34.699219 C 233.710938 34.519531 234.007812 33.890625 234.007812 33.890625" fill="#6b301e" fill-rule="evenodd"/></g><g><path d="M 274.972656 34.75 C 274.972656 34.75 272.769531 32.445312 269.386719 31.636719 C 266.007812 30.824219 258.996094 31.914062 258.929688 34.453125 C 258.847656 36.988281 264.101562 34.699219 268.625 34.699219 C 273.132812 34.699219 274.128906 35.777344 274.707031 35.59375 C 275.269531 35.429688 274.972656 34.75 274.972656 34.75" fill="#6b301e" fill-rule="evenodd"/></g><g><path d="M 260.007812 61.894531 C 260.355469 61.5625 260.371094 61.03125 260.058594 60.683594 C 259.726562 60.351562 259.195312 60.320312 258.847656 60.652344 L 258.800781 60.699219 C 257.074219 62.277344 254.621094 62.789062 252.304688 62.605469 C 249.980469 62.425781 247.84375 61.546875 246.734375 60.371094 L 246.703125 60.335938 C 246.386719 59.988281 245.839844 59.972656 245.507812 60.304688 C 245.160156 60.617188 245.144531 61.148438 245.457031 61.496094 L 245.492188 61.53125 C 246.867188 63.003906 249.4375 64.082031 252.167969 64.296875 C 254.902344 64.511719 257.839844 63.882812 259.960938 61.945312 L 260.007812 61.894531" fill="#ce7752" fill-rule="evenodd"/></g><g><path d="M 272.121094 40.914062 C 272.121094 40.914062 269.585938 42.539062 266.058594 42.308594 C 262.527344 42.089844 260.222656 40.949219 259.492188 41.230469 C 259.3125 41.296875 259.460938 42.355469 260.273438 42.96875 C 261.796875 44.113281 265.246094 45.105469 268.046875 44.410156 C 269.734375 43.996094 270.863281 43.152344 272.121094 40.914062 Z M 234.953125 39.9375 C 234.953125 39.9375 237.4375 41.675781 241 41.59375 C 244.5625 41.527344 246.949219 40.484375 247.679688 40.800781 C 247.859375 40.882812 247.664062 41.925781 246.800781 42.523438 C 245.226562 43.601562 241.714844 44.445312 238.910156 43.632812 C 237.238281 43.136719 236.128906 42.222656 234.953125 39.9375" fill="#6b301e" fill-rule="evenodd"/></g><g><path d="M 387.742188 235.316406 C 387.742188 235.316406 391.785156 263.585938 395.5625 277.523438 C 395.5625 277.539062 395.5625 277.539062 395.5625 277.558594 C 395.382812 281.566406 436.8125 290.632812 442.328125 270.777344 C 446.371094 256.230469 449.753906 237.023438 449.753906 237.023438 L 418.746094 236.226562 L 387.742188 235.316406" fill="#ffd174" fill-rule="evenodd"/></g><g><path d="M 419.410156 226.996094 C 436.480469 226.929688 450.199219 231.257812 450.035156 236.675781 C 449.886719 242.09375 435.914062 246.535156 418.847656 246.636719 C 401.777344 246.703125 388.074219 242.375 388.238281 236.957031 C 388.390625 231.539062 402.34375 227.082031 419.410156 226.996094" fill="#1a1a1a" fill-rule="evenodd"/></g><g clip-path="url(#b)"><path d="M 396.324219 233.875 C 389.398438 225.753906 370.773438 203.480469 374.882812 195.011719 C 379.789062 184.921875 396.09375 211.417969 396.09375 211.417969 C 396.09375 211.417969 383.285156 166.59375 394.851562 159.285156 C 406.417969 151.976562 409.714844 192.496094 409.714844 192.496094 C 409.714844 192.496094 411.023438 141.273438 424.480469 147.253906 C 437.9375 153.269531 427.050781 206.679688 427.050781 206.679688 C 427.050781 206.679688 436.265625 183.761719 443.421875 189.992188 C 450.582031 196.207031 439.214844 218.261719 439.214844 218.261719 C 439.214844 218.261719 465.496094 198.3125 464.171875 208.554688 C 463.242188 215.679688 449.402344 228.140625 441.085938 235.035156 C 432.136719 242.441406 401.363281 239.773438 396.324219 233.875" fill="#52a16a" fill-rule="evenodd"/></g><g><path d="M 415.28125 233.3125 C 418.050781 212.761719 418.117188 191.949219 420.671875 171.464844 C 420.96875 169.046875 421.21875 166.59375 421.847656 164.242188 C 421.847656 166.578125 421.546875 169.195312 421.367188 171.546875 C 419.859375 192.113281 419.890625 213.226562 417.488281 233.625 C 417.402344 234.207031 416.859375 234.621094 416.246094 234.539062 C 415.632812 234.453125 415.199219 233.90625 415.28125 233.3125 Z M 405.257812 231.4375 C 405.640625 228.667969 404.378906 218.230469 403.980469 214.832031 C 402.855469 204.757812 401.511719 194.136719 399.738281 184.160156 C 399.425781 182.335938 399.078125 180 398.363281 178.292969 C 399.425781 178.394531 401.214844 187.324219 401.429688 188.402344 C 402.972656 195.894531 408.191406 226.484375 407.410156 232.019531 C 407.246094 232.597656 406.632812 232.945312 406.054688 232.78125 C 405.457031 232.613281 405.109375 232.019531 405.257812 231.4375 Z M 423.4375 233.875 C 424.847656 225.257812 432.484375 210.328125 437.390625 202.96875 C 438.019531 202.023438 437.789062 202.339844 438.519531 201.511719 C 438.152344 202.585938 438.335938 202.15625 437.820312 203.199219 C 433.730469 211.785156 426.867188 224.941406 425.625 234.171875 C 425.542969 234.769531 424.996094 235.199219 424.382812 235.101562 C 423.785156 235.019531 423.339844 234.472656 423.4375 233.875" fill="#438356" fill-rule="evenodd"/></g><g><path d="M 357.066406 221.992188 C 360.066406 235.828125 356.9375 273.082031 344.804688 272.386719 C 342.882812 272.269531 336.335938 272.269531 334.433594 272.386719 C 322.367188 273.082031 316.417969 235.828125 318.40625 221.992188 L 337.960938 228.140625 L 357.066406 221.992188" fill="#1a1a1a" fill-rule="evenodd"/></g><g><path d="M 321.835938 226.796875 C 317.179688 223.863281 313.535156 223.550781 310.882812 224.941406 C 308.328125 226.285156 306.957031 229.050781 306.691406 232.5 C 306.441406 235.449219 307.003906 239.011719 308.296875 242.542969 C 311.296875 250.695312 318.289062 258.949219 328.53125 259.578125 L 328.632812 254.140625 C 321.074219 253.695312 315.753906 247.230469 313.417969 240.816406 C 312.390625 238.050781 311.960938 235.332031 312.109375 233.144531 C 312.242188 231.453125 312.707031 230.226562 313.566406 229.78125 C 314.527344 229.25 316.300781 229.648438 319.054688 231.355469 L 321.835938 226.796875" fill="#1a1a1a"/></g><g><path d="M 337.929688 229.449219 C 348.617188 229.449219 357.21875 226.085938 357.066406 221.992188 C 356.902344 217.882812 348.070312 214.519531 337.363281 214.519531 C 326.644531 214.519531 318.058594 217.882812 318.207031 221.992188 C 318.371094 226.085938 327.207031 229.449219 337.929688 229.449219" fill="#e6e6e6" fill-rule="evenodd"/></g><g><path d="M 337.929688 229.449219 C 344.703125 229.449219 350.636719 228.109375 354.035156 226.070312 C 350.4375 224.0625 344.558594 222.738281 337.976562 222.738281 C 331.183594 222.738281 325.269531 224.128906 321.871094 226.25 C 325.449219 228.191406 331.332031 229.449219 337.929688 229.449219" fill="#f18787" fill-rule="evenodd"/></g><g><path d="M 214.984375 221.59375 L 214.320312 219.953125 L 217.585938 220.453125 Z M 216.027344 224.210938 L 215.878906 223.847656 L 222.09375 221.132812 L 234.40625 222.988281 L 227.609375 225.953125 Z M 218.363281 229.980469 L 216.773438 226.035156 L 224.679688 227.230469 Z M 232.117188 234.835938 C 227.941406 236.660156 224.328125 238.214844 222.074219 239.179688 L 219.558594 232.945312 Z M 243.105469 229.996094 C 240.402344 231.207031 237.652344 232.417969 235.050781 233.558594 L 221.0625 231.453125 L 229.1875 227.90625 Z M 252.601562 225.722656 C 250.5625 226.664062 248.324219 227.675781 245.988281 228.722656 L 232.117188 226.632812 L 238.910156 223.667969 Z M 250.730469 218.496094 C 257.355469 219.574219 262.128906 220.433594 262.277344 220.734375 C 262.410156 220.996094 259.609375 222.441406 255.402344 224.429688 L 241.847656 222.375 Z M 233.976562 215.945312 C 238.167969 216.558594 242.410156 217.203125 246.269531 217.800781 L 237.339844 221.710938 L 225.027344 219.855469 Z M 211.386719 212.695312 C 215.066406 213.226562 221.925781 214.1875 229.433594 215.28125 L 220.519531 219.175781 L 213.574219 218.132812 L 211.386719 212.695312" fill="#b3b3b3" fill-rule="evenodd"/></g><g><path d="M 249.1875 201.824219 C 249.1875 201.824219 245.839844 202.074219 242.144531 203.914062 C 238.449219 205.769531 236.179688 207.027344 234.007812 207.757812 C 231.835938 208.488281 230.410156 208.304688 230.410156 208.304688 C 230.410156 208.304688 230.5625 210.65625 233.410156 211.550781 C 236.261719 212.449219 239.59375 211.949219 240.355469 211.601562 C 241.101562 211.253906 247.03125 207.507812 247.332031 207.011719 C 247.628906 206.515625 249.1875 201.824219 249.1875 201.824219" fill="#e5845b" fill-rule="evenodd"/></g><g><path d="M 273.132812 198.429688 C 268.242188 200.613281 253.976562 200.8125 249.1875 201.824219 C 244.398438 202.820312 237.503906 213.691406 236.195312 214.5 C 234.902344 215.296875 232.613281 230.578125 232.515625 231.171875 C 232.398438 231.769531 234.355469 231.667969 235.550781 231.023438 C 236.757812 230.375 237.355469 229.464844 237.355469 229.464844 L 237.304688 232.117188 C 237.304688 232.117188 239.59375 231.917969 241.25 230.425781 C 242.890625 228.917969 246.882812 221.976562 247.578125 220.980469 C 248.277344 219.988281 250.230469 218.894531 250.230469 218.894531 C 250.230469 218.894531 244.53125 230.773438 244.480469 231.273438 C 244.429688 231.769531 247.382812 232.265625 250.679688 227.875 C 253.976562 223.484375 257.371094 216.789062 259.0625 216.09375 C 260.769531 215.398438 271.476562 216.558594 276.230469 212.792969 C 281.003906 209.050781 283.125 200.433594 273.132812 198.429688" fill="#fe9365" fill-rule="evenodd"/></g></g></svg>